<?xml version="1.0" encoding="utf-8"?>
<!-- Generator: Adobe Illustrator 26.0.3, SVG Export Plug-In . SVG Version: 6.00 Build 0)  -->
<svg version="1.0" id="katman_1" xmlns="http://www.w3.org/2000/svg" xmlns:xlink="http://www.w3.org/1999/xlink" x="0px" y="0px"
	 viewBox="0 0 600 450" style="enable-background:new 0 0 600 450;" xml:space="preserve">
<style type="text/css">
	.st0{fill:#31A853;}
	.st1{fill:#FBBC08;}
	.st2{fill:#E84336;}
	.st3{fill:#517BBD;}
	.st4{fill:#5F6369;}
</style>
<g>
	<g>
		<g>
			<path class="st0" d="M100.7,145c-3.5,0-6.8,1.9-8.4,5.1c-1.6,3.1-1.5,6.9,0.5,9.8l4.1-4.1c-0.1-0.4-0.2-0.8-0.2-1.3
				c0-2.2,1.8-4,4-4c2.2,0,4,1.8,4,4c0,2.2-1.8,4-4,4c-0.4,0-0.8-0.1-1.3-0.2l-4.1,4.1c3.4,2.3,7.9,2.2,11.1-0.3s4.6-6.8,3.3-10.6
				C108.5,147.6,104.8,145,100.7,145L100.7,145z"/>
			<path class="st1" d="M96.9,172.8c0-3.2-1-6.4-3-8.9l-5.3,5.3c1.6,3,1.1,6.8-1.4,9.2l2.9,7C94.3,182.6,96.9,177.9,96.9,172.8z"/>
			<path class="st2" d="M82.1,180.4H82c-3.2,0-6.1-2.1-7.2-5.1s0-6.5,2.5-8.5c2.6-2,6.1-2.1,8.8-0.3l5.2-5.2
				c-5.1-4.1-12.3-4.5-17.7-0.8c-5.4,3.7-7.8,10.4-5.9,16.7c1.9,6.3,7.7,10.6,14.2,10.6c1,0,2-0.1,3-0.3L82.1,180.4z"/>
			<path class="st3" d="M100.9,186.4c-3.3,0-6.6,0.5-9.8,1.4l4.2,10.2c1.8-0.4,3.7-0.7,5.6-0.7c10.9,0,20.3,7.7,22.4,18.4
				c2.1,10.7-3.6,21.4-13.6,25.5S88,242,81.9,233c-6-9-4.9-21.1,2.8-28.8c1.6-1.6,3.4-3,5.4-4l-4.1-10.2
				c-15.4,7.6-22.8,25.5-17,41.7s22.8,25.5,39.5,21.6c16.8-3.9,27.9-19.7,26-36.8S118.2,186.4,100.9,186.4L100.9,186.4z"/>
		</g>
		<path class="st4" d="M255.2,184.9c4.3,2.5,7.8,6.2,10.2,10.6c2.5,4.6,3.7,9.7,3.6,14.9c0.1,5.2-1.2,10.3-3.6,14.9
			c-2.3,4.4-5.9,8.1-10.1,10.6c-9.1,5.2-20.2,5.2-29.3,0v0c-4.3-2.5-7.8-6.2-10.1-10.6c-2.5-4.6-3.7-9.7-3.6-14.9
			c-0.1-5.2,1.2-10.3,3.6-14.8c2.3-4.4,5.9-8.1,10.1-10.6C235,179.7,246.1,179.7,255.2,184.9z M317,184.9c4.3,2.5,7.8,6.2,10.2,10.6
			c2.5,4.6,3.7,9.7,3.6,14.9c0.1,5.2-1.2,10.3-3.6,14.9c-2.3,4.4-5.9,8.1-10.1,10.6c-9.1,5.2-20.2,5.2-29.3,0v0
			c-4.3-2.5-7.8-6.2-10.1-10.6c-2.5-4.6-3.7-9.7-3.6-14.9c-0.1-5.2,1.2-10.3,3.6-14.8c2.3-4.4,5.9-8.1,10.1-10.6
			C296.8,179.7,308,179.7,317,184.9z M412.5,181c5.4,0,10.1,1.2,14.1,3.6c4,2.4,7.2,5.9,9.2,10.1c2.2,4.6,3.3,9.6,3.2,14.7
			c0,0.9-0.1,1.9-0.2,2.8h-43.9c0.2,4.2,1.2,7.8,3,10.7c1.7,2.8,4,5,6.9,6.5c2.7,1.4,5.7,2.2,8.7,2.2c7.2,0,12.7-3.3,16.4-10
			l7.8,3.8c-2.2,4.3-5.6,8-9.7,10.6c-4.1,2.6-9.1,3.9-14.9,3.9c-5,0.1-9.9-1.2-14.2-3.8c-4.2-2.5-7.6-6.1-9.8-10.5
			c-2.4-4.6-3.6-9.8-3.5-15.1c0-5.1,1.1-10.1,3.3-14.7c2.1-4.4,5.4-8.1,9.4-10.8C402.7,182.3,407.6,180.9,412.5,181z M177,159v71.8
			h35v9h-44.5V159H177z M347.2,159v51.1l28.6-29.1h12.1v0.4l-24.2,24.4l23,33.6v0.4h-11.4L357,212.4l-9.8,9.9v17.5h-9.5V159H347.2z
			 M477.9,182.2v10.2c-2.5-1.2-5.3-1.8-8.1-1.8c-2.7,0-5.4,0.8-7.6,2.4c-2.3,1.6-4.3,3.8-5.5,6.3c-1.4,2.7-2.1,5.6-2.1,8.6v32h-9.5
			V181h9.1V192h0.4c1.1-3.1,3.3-5.7,6.5-7.8c3-2,6.5-3.1,10.1-3.1C473.5,180.9,475.8,181.4,477.9,182.2z M240.5,189.4
			c-6.9,0-13.3,3.8-16.7,9.9c-1.8,3.4-2.8,7.3-2.7,11.2c-0.1,3.9,0.8,7.8,2.7,11.2c2.5,4.5,6.6,7.8,11.5,9.2
			c4.9,1.4,10.2,0.7,14.6-1.9h0c3-1.7,5.4-4.3,7.1-7.3c1.8-3.4,2.8-7.3,2.7-11.2c0.1-3.9-0.8-7.8-2.7-11.2c-1.6-3.1-4.1-5.6-7.1-7.3
			C247.2,190.2,243.9,189.3,240.5,189.4z M302.4,189.4c-3.4,0-6.7,0.9-9.6,2.5c-3,1.7-5.5,4.3-7.1,7.3c-1.8,3.4-2.8,7.3-2.7,11.2
			c-0.1,3.9,0.8,7.8,2.7,11.2c1.6,3.1,4.1,5.6,7.1,7.3c2.9,1.7,6.2,2.6,9.6,2.5c3.4,0,6.6-0.9,9.5-2.5h0c3-1.8,5.4-4.3,7.1-7.3
			c1.8-3.4,2.8-7.3,2.7-11.2c0.1-3.9-0.8-7.8-2.7-11.2c-1.6-3.1-4.1-5.6-7.1-7.3C309,190.2,305.7,189.3,302.4,189.4z M401.5,193.5
			c-3,2.8-5,6.5-6,11h33.8c-0.2-2.4-0.8-4.8-1.9-6.9c-1.3-2.4-3.1-4.4-5.4-5.9c-2.5-1.6-5.6-2.4-9.3-2.4
			C408.5,189.3,404.5,190.8,401.5,193.5z"/>
	</g>
	<g id="Layer_2_00000136406940948519289710000017269830208004079269_">
		<g id="Layer_1-2">
			<path class="st4" d="M304.1,295.8c-4.6,0.1-9-1.7-12.2-5c-3.3-3.1-5.2-7.5-5.1-12c-0.1-4.5,1.8-8.9,5.1-12
				c3.2-3.3,7.6-5.1,12.2-5c4.4-0.1,8.6,1.6,11.7,4.7l-3.3,3.3c-2.2-2.2-5.3-3.4-8.4-3.3c-3.3-0.1-6.4,1.3-8.7,3.6
				c-2.3,2.3-3.6,5.5-3.6,8.8c-0.1,3.3,1.2,6.5,3.6,8.8c4.8,4.7,12.4,4.8,17.3,0.2c1.5-1.6,2.4-3.7,2.5-5.9h-11.1v-4.7h15.7
				c0.2,1,0.3,1.9,0.3,2.9c0,4.6-1.3,8.2-4,10.9C312.9,294.3,308.6,296,304.1,295.8z M340.6,292.7c-4.4,4.2-11.3,4.2-15.7,0
				c-2.1-2.1-3.3-4.9-3.2-7.8c-0.1-2.9,1-5.8,3.1-7.8c4.4-4.2,11.3-4.2,15.7,0c2.1,2.1,3.3,4.9,3.2,7.8
				C343.8,287.8,342.7,290.6,340.6,292.7z M328.4,289.6c2.3,2.4,6,2.5,8.5,0.3c0.1-0.1,0.2-0.2,0.3-0.3c1.2-1.3,1.9-3,1.8-4.8
				c0.1-1.8-0.6-3.5-1.8-4.8c-2.3-2.4-6.2-2.5-8.6-0.2c-0.1,0.1-0.1,0.1-0.2,0.2c-1.2,1.3-1.9,3-1.8,4.8
				C326.5,286.6,327.1,288.4,328.4,289.6L328.4,289.6z M364.6,292.7c-4.4,4.2-11.3,4.2-15.7,0c-2.1-2.1-3.3-4.9-3.2-7.8
				c-0.1-2.9,1.1-5.8,3.2-7.8c4.4-4.2,11.3-4.2,15.7,0c2.1,2.1,3.3,4.9,3.2,7.8C367.9,287.8,366.7,290.6,364.6,292.7L364.6,292.7z
				 M352.4,289.6c2.3,2.4,6,2.5,8.5,0.3c0.1-0.1,0.2-0.2,0.3-0.3c1.2-1.3,1.9-3,1.8-4.8c0.1-1.8-0.6-3.5-1.8-4.8
				c-2.3-2.4-6.2-2.5-8.6-0.2c-0.1,0.1-0.1,0.1-0.2,0.2c-1.2,1.3-1.9,3-1.8,4.8C350.5,286.6,351.2,288.4,352.4,289.6L352.4,289.6z
				 M380.4,305.7c-2.2,0.1-4.4-0.6-6.2-1.9c-1.6-1.2-2.8-2.7-3.6-4.5l4.2-1.7c0.5,1.1,1.2,2,2.1,2.7c1,0.8,2.2,1.2,3.5,1.2
				c1.6,0.1,3.2-0.5,4.3-1.7c1.1-1.3,1.7-3.1,1.6-4.8v-1.6h-0.2c-1.4,1.7-3.6,2.6-5.8,2.5c-2.8,0-5.5-1.2-7.4-3.2
				c-2.1-2-3.2-4.8-3.2-7.8c0-2.9,1.1-5.7,3.2-7.8c1.9-2,4.6-3.2,7.4-3.2c1.2,0,2.3,0.2,3.4,0.7c0.9,0.4,1.7,1,2.4,1.7h0.2v-1.8h4.6
				v19.7c0,3.8-1,6.7-2.9,8.6C385.9,304.8,383.2,305.8,380.4,305.7L380.4,305.7L380.4,305.7z M380.7,291.5c1.6,0,3.1-0.7,4.2-1.9
				c1.1-1.3,1.7-3,1.7-4.7c0.1-1.7-0.5-3.4-1.7-4.8c-1-1.2-2.6-1.9-4.2-1.9c-1.6,0-3.2,0.7-4.3,1.9c-1.2,1.3-1.9,3-1.8,4.8
				c0,1.7,0.6,3.4,1.8,4.7C377.5,290.9,379.1,291.5,380.7,291.5L380.7,291.5z M399,262.9v32.3h-4.8v-32.3H399z M412.2,295.8
				c-2.9,0.1-5.7-1.1-7.8-3.2c-2.1-2.1-3.2-4.8-3.1-7.8c-0.1-2.9,1-5.8,3-7.9c1.9-2,4.6-3.1,7.4-3.1c1.3,0,2.5,0.2,3.7,0.7
				c1,0.4,2,1.1,2.8,1.9c0.7,0.7,1.3,1.4,1.8,2.2c0.4,0.7,0.8,1.4,1.1,2.2l0.5,1.3l-14.7,6c0.9,2.1,3,3.4,5.3,3.3
				c2.2,0,4.3-1.1,5.4-3l3.7,2.5c-0.9,1.3-2.2,2.5-3.5,3.3C416.2,295.3,414.2,295.9,412.2,295.8L412.2,295.8L412.2,295.8z
				 M406.1,284.5l9.8-4.1c-0.3-0.7-0.8-1.3-1.5-1.7c-0.8-0.4-1.6-0.7-2.5-0.6c-1.5,0-2.9,0.7-4,1.7
				C406.6,281.1,406,282.8,406.1,284.5L406.1,284.5L406.1,284.5z"/>
			<path class="st4" d="M446.9,295.8c-8.4,0.2-15.3-6.5-15.5-14.8c0-0.2,0-0.4,0-0.7c-0.2-8.4,6.5-15.3,14.8-15.5c0.2,0,0.4,0,0.7,0
				c4.2-0.1,8.2,1.7,10.9,4.9l-2.7,2.6c-2-2.5-5.1-4-8.3-3.8c-3.1-0.1-6,1.1-8.2,3.3c-2.3,2.3-3.5,5.4-3.3,8.6
				c-0.1,3.2,1.1,6.3,3.3,8.6c2.2,2.2,5.1,3.4,8.2,3.3c3.5,0,6.9-1.6,9.2-4.3l2.7,2.7c-1.4,1.7-3.1,3-5.1,3.9
				C451.5,295.4,449.2,295.9,446.9,295.8z"/>
			<path class="st4" d="M466,295.2h-3.8v-29.8h3.8V295.2z"/>
			<path class="st4" d="M472.2,277.3c4.2-4.1,10.9-4.1,15.1,0c2,2.1,3,4.9,3,7.8c0.1,2.9-1,5.7-3,7.8c-4.2,4.1-10.9,4.1-15.1,0
				c-2-2.1-3-4.9-3-7.8C469.2,282.1,470.2,279.4,472.2,277.3z M475.1,290.4c2.5,2.6,6.5,2.7,9.1,0.2c0.1-0.1,0.1-0.1,0.2-0.2
				c1.3-1.4,2.1-3.4,2-5.4c0.1-2-0.6-3.9-2-5.4c-2.4-2.6-6.5-2.7-9.1-0.3c-0.1,0.1-0.2,0.2-0.3,0.3c-1.3,1.4-2.1,3.4-2,5.4
				C473,287,473.7,288.9,475.1,290.4L475.1,290.4z"/>
			<path class="st4" d="M511.4,295.2h-3.7v-2.8h-0.2c-0.7,1-1.6,1.9-2.7,2.5c-1.1,0.7-2.5,1-3.8,1c-2.2,0.1-4.3-0.7-5.8-2.3
				c-1.4-1.8-2.1-4-2-6.3v-12.5h3.8v11.9c0,3.8,1.7,5.7,5,5.7c1.5,0,3-0.7,3.9-1.9c1-1.3,1.5-2.8,1.5-4.4v-11.2h3.8L511.4,295.2z"/>
			<path class="st4" d="M524.4,295.8c-2.6,0-5.1-1.1-6.8-3.1c-1.9-2.1-3-4.9-2.9-7.8c-0.1-2.9,0.9-5.7,2.9-7.8
				c1.7-2,4.2-3.1,6.8-3.1c1.5,0,2.9,0.3,4.2,1c1.1,0.6,2.1,1.4,2.8,2.5h0.2l-0.2-2.8v-9.4h3.8v29.8h-3.7v-2.8h-0.2
				c-0.7,1.1-1.6,1.9-2.8,2.5C527.3,295.5,525.9,295.9,524.4,295.8z M525,292.3c1.7,0,3.4-0.7,4.6-2c1.3-1.5,2-3.4,1.9-5.3
				c0.1-2-0.6-3.9-1.9-5.4c-2.3-2.5-6.3-2.7-8.8-0.4c-0.1,0.1-0.2,0.2-0.4,0.4c-1.3,1.5-2,3.4-1.9,5.4c-0.1,2,0.6,3.9,1.9,5.4
				C521.6,291.7,523.3,292.4,525,292.3z"/>
			<path class="st4" d="M171.5,287.7v6.4h-3v-17.3h6.6c1.6-0.1,3.3,0.4,4.5,1.5c1.1,1,1.8,2.5,1.7,4c0.1,1.5-0.5,3-1.7,4
				c-1.3,1-3,1.5-4.7,1.4L171.5,287.7z M171.5,285.3h3.7c0.9,0.1,1.7-0.2,2.4-0.7c0.6-0.6,0.9-1.4,0.8-2.2c0-0.8-0.3-1.6-0.9-2.2
				c-0.7-0.6-1.5-0.9-2.4-0.8h-3.7L171.5,285.3L171.5,285.3z"/>
			<path class="st4" d="M193.1,290.1h-6.6l-1.4,4h-3.2l6.6-17.3h2.7l6.6,17.3h-3.2L193.1,290.1z M187.2,287.7h5l-2.5-7.1
				L187.2,287.7z"/>
			<path class="st4" d="M207.4,287.5h-3.3v6.6h-3v-17.3h6.1c1.6-0.1,3.3,0.4,4.6,1.3c1.1,1,1.7,2.4,1.6,3.9c0,1-0.3,2.1-0.9,2.9
				c-0.6,0.8-1.4,1.4-2.3,1.8l3.9,7.2v0.1h-3.2L207.4,287.5z M204.1,285.1h3.1c0.9,0.1,1.7-0.2,2.4-0.8c0.6-0.5,0.9-1.3,0.9-2.1
				c0-0.8-0.3-1.6-0.9-2.2c-0.7-0.5-1.5-0.8-2.4-0.8H204L204.1,285.1z"/>
			<path class="st4" d="M229.7,279.3h-5.4v14.8h-3v-14.8h-5.4v-2.4h13.7V279.3z"/>
			<path class="st4" d="M256.6,286c0,1.5-0.3,3-0.9,4.4c-0.5,1.2-1.4,2.2-2.5,3c-2.3,1.4-5.2,1.4-7.5,0c-1.1-0.7-2-1.7-2.5-2.9
				c-0.6-1.4-0.9-2.9-0.9-4.4v-1c0-1.5,0.3-3,0.9-4.4c0.5-1.2,1.4-2.2,2.5-3c2.3-1.4,5.2-1.4,7.5,0c1.1,0.7,2,1.7,2.5,2.9
				c0.6,1.4,0.9,2.9,0.9,4.4V286z M253.6,285c0.1-1.6-0.3-3.1-1.1-4.4c-1.3-1.7-3.7-2-5.4-0.7c-0.3,0.2-0.5,0.5-0.7,0.7
				c-0.8,1.3-1.2,2.8-1.1,4.3v1c-0.1,1.6,0.3,3.1,1.1,4.4c0.7,1,1.9,1.6,3.1,1.6c1.2,0.1,2.4-0.5,3.1-1.5c0.8-1.3,1.2-2.9,1.1-4.4
				L253.6,285z"/>
			<path class="st4" d="M271,286.8H264v7.3h-3v-17.3h11v2.4h-8v5.1h6.9V286.8z"/>
		</g>
	</g>
</g>
</svg>
