<?xml version="1.0" encoding="UTF-8"?>
<svg id="Layer_2" data-name="Layer 2" xmlns="http://www.w3.org/2000/svg" viewBox="0 0 370.34 53.91">
  <defs>
    <style>
      .cls-1 {
        opacity: .9;
      }

      .cls-2 {
        fill: #fff;
      }

      .cls-3 {
        fill: #e30613;
      }
    </style>
  </defs>
  <g id="Layer_1-2" data-name="Layer 1">
    <g class="cls-1">
      <g>
        <path class="cls-3" d="M193,27.15c-.05-.7.22-1.49-.85-1.75-1.7-.41-2.78-1.62-3.57-3.1-.51-.96-.86-1.99-1.12-3.04-.74-2.9-.88-5.86-.75-8.84.16-3.4-2.45-6.23-6.06-6.15-5.36.12-10.72.03-16.08.03h0c-5.55,0-11.1-.01-16.65.01-3.1.02-5.49,2.44-5.54,5.55-.02,1.47.03,2.94-.04,4.4-.13,2.46-.5,4.88-1.45,7.19-.79,1.91-1.96,3.43-4.07,3.99-1,.26-.68,1.08-.73,1.73-.05.62.07,1.1.82,1.28,1.22.3,2.17,1.02,2.92,2.03.89,1.2,1.39,2.57,1.77,4,.83,3.09.8,6.24.8,9.41,0,3.25,2.35,5.67,5.6,5.68,11.04.03,22.07.03,33.11,0,3.23-.01,5.55-2.46,5.58-5.71.01-1.4-.04-2.81.04-4.21.15-2.79.57-5.53,1.83-8.06.75-1.51,1.87-2.69,3.55-3.12.79-.2.93-.64.88-1.32ZM166.77,40.28c-8.26,1.48-16.37-5.26-16.46-13.65-.06-5.68,2.44-9.9,7.22-12.85,1.1-.68,1.27-.56,1.28.72,0,1.4,0,2.81,0,4.21,0,1.5-.01,3,0,4.5,0,.64-.24.94-.9.91-.64-.03-1.28,0-1.91,0-.51,0-1.07-.03-1.32.54-.26.59.07,1.03.47,1.44,1.26,1.26,2.51,2.54,3.77,3.81,1.55,1.56,3.11,3.11,4.68,4.65.76.75,1.18.76,1.94,0,2.85-2.83,5.69-5.68,8.53-8.52.34-.34.67-.72.43-1.26-.24-.56-.73-.66-1.27-.65-.67,0-1.34-.03-2.01,0-.72.04-.96-.29-.95-.97.01-2.97,0-5.93,0-8.9,0-.98.19-1.09,1.07-.59,4.23,2.39,6.79,5.99,7.34,10.8.89,7.81-4.19,14.43-11.92,15.81Z"/>
        <g>
          <path class="cls-2" d="M198.28,38.54V4.27h6.46v28.32h7.89v5.95h-14.35Z"/>
          <path class="cls-2" d="M236.88,28c0,1.51-.29,2.94-.87,4.3-.58,1.36-1.38,2.54-2.39,3.53-1.01.99-2.19,1.78-3.52,2.36-1.34.58-2.77.87-4.27.87s-2.94-.29-4.3-.87c-1.36-.59-2.54-1.37-3.53-2.36s-1.78-2.17-2.36-3.53c-.58-1.36-.87-2.79-.87-4.3v-4.34c0-1.5.29-2.93.87-4.26.59-1.34,1.38-2.5,2.4-3.49,1.01-1,2.19-1.77,3.52-2.33,1.33-.56,2.76-.84,4.27-.84s2.93.28,4.27.84c1.33.56,2.51,1.33,3.52,2.33,1.01.99,1.81,2.15,2.39,3.49.59,1.33.87,2.76.87,4.26v4.34ZM231.12,23.66c0-1.46-.53-2.69-1.58-3.68-1.06-.99-2.3-1.49-3.72-1.49s-2.71.5-3.76,1.49c-1.03.99-1.55,2.22-1.55,3.68l-.07,4.34c0,1.47.52,2.71,1.56,3.75s2.3,1.56,3.81,1.56,2.71-.52,3.75-1.56c1.03-1.03,1.56-2.28,1.56-3.75v-4.34Z"/>
          <path class="cls-2" d="M264.75,38.54h-3.95l-4.53-13-4.39,13h-3.95l-9.51-25.54h6.59l4.53,13.58.32,1.56.32-1.49,4.27-13.64h3.75l4.2,13.39.39,1.75.39-1.69,4.39-13.45h6.47l-9.32,25.54Z"/>
          <path class="cls-2" d="M295.66,36.02c-1.86,1.21-3.44,2.02-4.75,2.43-1.31.41-2.6.62-3.85.62-1.68,0-3.24-.29-4.69-.87-1.45-.59-2.69-1.37-3.75-2.36-1.06-.99-1.89-2.16-2.49-3.49-.61-1.33-.91-2.78-.91-4.34l.07-4.39c0-1.51.3-2.92.9-4.24.61-1.31,1.44-2.46,2.49-3.43,1.06-.97,2.3-1.74,3.75-2.3,1.45-.56,2.99-.84,4.62-.84,1.25,0,2.54.21,3.85.62,1.31.41,2.9,1.2,4.75,2.36l-2.59,5.24c-1.68-1.12-2.95-1.83-3.81-2.13-.86-.3-1.61-.45-2.26-.45-.78,0-1.51.14-2.2.43-.69.28-1.29.65-1.81,1.13-.51.48-.92,1.03-1.2,1.65-.28.62-.42,1.28-.42,1.97v4.39c0,1.42.54,2.68,1.61,3.75,1.08,1.08,2.41,1.62,4.01,1.62.34,0,.69-.04,1.03-.1.34-.07.75-.18,1.22-.36.48-.17,1.01-.43,1.62-.78.6-.34,1.33-.79,2.19-1.36l2.59,5.24Z"/>
          <path class="cls-2" d="M319.71,28c0,1.51-.29,2.94-.87,4.3-.58,1.36-1.38,2.54-2.39,3.53-1.01.99-2.19,1.78-3.52,2.36-1.34.58-2.77.87-4.27.87s-2.94-.29-4.3-.87c-1.36-.59-2.54-1.37-3.53-2.36-.99-.99-1.78-2.17-2.36-3.53-.58-1.36-.87-2.79-.87-4.3v-4.34c0-1.5.29-2.93.87-4.26.59-1.34,1.38-2.5,2.4-3.49,1.01-1,2.19-1.77,3.52-2.33,1.33-.56,2.76-.84,4.27-.84s2.93.28,4.27.84c1.33.56,2.51,1.33,3.52,2.33,1.01.99,1.81,2.15,2.39,3.49.59,1.33.87,2.76.87,4.26v4.34ZM313.96,23.66c0-1.46-.53-2.69-1.58-3.68-1.06-.99-2.3-1.49-3.72-1.49s-2.71.5-3.76,1.49c-1.03.99-1.55,2.22-1.55,3.68l-.07,4.34c0,1.47.52,2.71,1.56,3.75,1.03,1.03,2.3,1.56,3.81,1.56s2.71-.52,3.75-1.56c1.03-1.03,1.56-2.28,1.56-3.75v-4.34Z"/>
          <path class="cls-2" d="M338.46,38.54v-1.94c-.73.73-1.59,1.3-2.58,1.71-1,.41-1.92.62-2.78.62-1.47,0-2.87-.27-4.2-.81-1.34-.54-2.52-1.31-3.56-2.3-1.03-.99-1.86-2.18-2.46-3.56-.61-1.38-.91-2.89-.91-4.53v-4.27c0-1.47.27-2.85.81-4.14.54-1.3,1.31-2.43,2.3-3.4,1-.97,2.19-1.72,3.59-2.27,1.4-.54,2.94-.81,4.62-.81,1.81,0,3.54.39,5.17,1.17V0h6.08v38.54h-6.08ZM338.59,23.66c0-1.5-.48-2.74-1.42-3.71-.95-.98-2.27-1.46-3.95-1.46-1.47,0-2.69.51-3.68,1.52-1,1.01-1.49,2.22-1.49,3.59v4.14c0,1.55.48,2.85,1.45,3.91.97,1.06,2.25,1.58,3.85,1.58s2.87-.51,3.81-1.55c.95-1.04,1.42-2.33,1.42-3.88v-4.14Z"/>
          <path class="cls-2" d="M370.34,28.32h-16.36c.09,1.38.64,2.55,1.65,3.53,1.01.97,2.23,1.45,3.65,1.45,1.12,0,2.12-.32,3.01-.94.88-.62,1.52-1.43,1.91-2.42l4.85,3.16c-.9,1.81-2.21,3.26-3.91,4.34-1.71,1.08-3.65,1.62-5.85,1.62-1.51,0-2.94-.29-4.3-.87-1.36-.59-2.54-1.37-3.53-2.36-.99-.99-1.78-2.17-2.36-3.53-.58-1.36-.87-2.79-.87-4.3v-4.27c0-1.5.29-2.93.87-4.27.59-1.33,1.38-2.49,2.4-3.49,1.01-.99,2.19-1.77,3.52-2.33,1.33-.56,2.76-.84,4.27-.84s2.93.29,4.27.84c1.33.56,2.51,1.33,3.52,2.33,1.01,1,1.81,2.16,2.39,3.49.59,1.34.87,2.77.87,4.27v4.59ZM364.39,22.37c-.3-1.12-.92-2.04-1.87-2.75-.95-.71-2.03-1.06-3.23-1.06s-2.34.35-3.26,1.06c-.93.71-1.56,1.63-1.91,2.75l.06.78h10.28l-.07-.78Z"/>
        </g>
        <g>
          <path class="cls-2" d="M202.91,50.2c-.42.27-.78.45-1.08.55-.29.1-.59.14-.87.14-.38,0-.73-.07-1.06-.2-.33-.13-.61-.31-.85-.54-.24-.23-.43-.49-.56-.79-.14-.3-.21-.63-.21-.98v-1c.01-.34.08-.67.22-.96.14-.3.32-.56.56-.78.24-.22.52-.4.85-.53.33-.12.68-.19,1.05-.19.29,0,.58.05.87.14.3.1.66.27,1.08.54l-.59,1.19c-.38-.26-.67-.42-.87-.48-.19-.07-.37-.1-.51-.1-.18,0-.34.03-.5.1-.15.06-.29.15-.41.26-.12.1-.21.23-.27.37-.07.14-.1.29-.1.45v1c0,.32.12.61.37.85.25.24.55.37.91.37.08,0,.16,0,.23-.02.08-.01.18-.04.28-.08.11-.04.23-.1.37-.18.14-.08.31-.18.5-.31l.59,1.19Z"/>
          <path class="cls-2" d="M211.61,48.38c0,.34-.07.67-.2.98s-.31.57-.54.8c-.23.23-.49.4-.8.54-.3.13-.62.2-.97.2s-.67-.07-.98-.2c-.31-.13-.57-.31-.8-.54-.23-.23-.4-.49-.54-.8-.13-.31-.2-.64-.2-.98v-.98c0-.34.07-.67.2-.97.13-.31.32-.57.54-.79.23-.23.5-.4.8-.54.31-.12.63-.19.97-.19s.67.07.97.19c.31.13.57.31.8.54.23.22.41.48.54.79.13.3.2.62.2.97v.98ZM210.3,47.4c0-.34-.12-.62-.36-.84-.23-.23-.52-.34-.84-.34s-.62.11-.85.34c-.23.22-.35.5-.35.84v.98c-.01.33.1.62.34.85.23.23.53.35.87.35s.62-.12.85-.35c.23-.23.35-.52.35-.85v-.98Z"/>
          <path class="cls-2" d="M219.09,50.77v-.44c-.16.17-.36.29-.59.39-.22.1-.43.14-.63.14-.33,0-.65-.06-.95-.18-.3-.12-.57-.29-.81-.52-.23-.23-.42-.49-.56-.81s-.21-.66-.21-1.03v-.97c0-.34.06-.65.18-.94.12-.29.29-.55.52-.77.23-.22.5-.4.81-.52.32-.12.67-.18,1.05-.18.41,0,.81.09,1.17.26v-3.18h1.38v8.75h-1.38ZM219.12,47.4c0-.34-.1-.62-.32-.84-.21-.22-.51-.33-.89-.33-.33,0-.61.11-.84.34-.23.23-.34.5-.34.81v.94c0,.35.11.65.33.89.22.24.51.36.87.36s.65-.12.87-.35c.22-.23.32-.53.32-.88v-.94Z"/>
          <path class="cls-2" d="M229.55,48.46h-3.71c.02.32.15.58.37.8.23.22.51.33.83.33.26,0,.48-.07.68-.21.21-.14.34-.32.43-.55l1.1.72c-.21.41-.5.74-.89.98-.38.24-.83.37-1.33.37-.34,0-.67-.07-.98-.2-.31-.13-.57-.31-.8-.54-.23-.23-.4-.49-.54-.8-.13-.31-.2-.64-.2-.98v-.97c0-.34.07-.67.2-.97.13-.31.32-.57.54-.79.23-.23.5-.4.8-.54.31-.12.63-.19.97-.19s.67.07.97.19c.31.13.57.31.8.54.23.22.41.48.54.79.13.3.2.62.2.97v1.04ZM228.2,47.11c-.07-.26-.21-.46-.43-.62-.21-.16-.45-.24-.73-.24s-.53.08-.74.24c-.21.16-.35.37-.43.62v.18h2.35v-.18Z"/>
          <path class="cls-2" d="M244.84,50.2c-.42.27-.78.45-1.08.55-.29.1-.59.14-.87.14-.38,0-.73-.07-1.06-.2-.33-.13-.61-.31-.85-.54-.24-.23-.43-.49-.56-.79-.14-.3-.21-.63-.21-.98v-1c.01-.34.08-.67.22-.96.14-.3.32-.56.56-.78.24-.22.52-.4.85-.53.33-.12.68-.19,1.05-.19.29,0,.58.05.87.14.3.1.66.27,1.08.54l-.59,1.19c-.38-.26-.67-.42-.87-.48-.19-.07-.37-.1-.51-.1-.18,0-.34.03-.5.1-.15.06-.29.15-.41.26-.12.1-.21.23-.27.37-.07.14-.1.29-.1.45v1c0,.32.12.61.37.85.25.24.55.37.91.37.08,0,.16,0,.23-.02.08-.01.18-.04.28-.08.11-.04.23-.1.37-.18.14-.08.31-.18.5-.31l.59,1.19Z"/>
          <path class="cls-2" d="M253.46,50.77h-1.39v-3.49c0-.4-.04-.67-.15-.82-.1-.16-.32-.23-.69-.23-.43,0-.71.14-.86.43-.14.28-.21.66-.21,1.13v2.99h-1.39v-8.77h1.39v3.27c.34-.22.72-.34,1.11-.34.43,0,.78.07,1.06.18.29.12.51.29.67.51.17.21.29.45.35.74.07.28.1.59.1.91v3.49Z"/>
          <path class="cls-2" d="M261.16,50.77v-.43c-.12.15-.29.26-.51.36-.21.1-.42.14-.64.14-.4,0-.76-.07-1.07-.2-.32-.13-.58-.32-.81-.54-.23-.23-.4-.5-.51-.8-.12-.3-.18-.63-.18-.97v-1.03c0-.34.06-.65.18-.94s.29-.55.51-.77c.22-.23.49-.4.81-.52.32-.12.67-.18,1.05-.18.23,0,.44.05.65.15.21.1.38.22.51.35v-.43h1.39v5.8h-1.39ZM261.19,47.28c0-.32-.1-.58-.32-.8-.21-.22-.51-.33-.88-.33-.32,0-.59.12-.82.35s-.34.51-.34.82v1.01c0,.34.11.64.33.88s.51.37.86.37c.37,0,.66-.12.87-.36.21-.24.31-.55.31-.93v-1.01Z"/>
          <path class="cls-2" d="M270.07,50.77v-3.56c0-.44-.05-.73-.16-.86-.1-.13-.31-.2-.62-.2-.15,0-.29.04-.43.14-.12.09-.23.21-.33.36-.09.15-.16.31-.21.5-.05.18-.07.37-.07.56v3.07h-1.38v-5.8h1.38v.45c.18-.18.36-.31.54-.4.19-.08.37-.12.54-.12.43,0,.77.06,1.05.18.28.12.5.28.65.49.16.21.27.45.33.73.07.28.1.59.1.91v3.56h-1.39Z"/>
          <path class="cls-2" d="M280.59,50.8c0,.3-.02.64-.07,1-.04.37-.2.72-.45,1.06-.25.32-.56.55-.92.7-.35.16-.74.23-1.15.23-.32,0-.63-.04-.94-.15-.3-.1-.57-.25-.81-.45-.23-.21-.43-.47-.59-.8s-.26-.73-.29-1.2h1.38c.05.5.18.84.4,1.03.22.19.49.29.8.29.49,0,.82-.13.99-.39.18-.26.26-.6.26-1.03v-.51c-.19.11-.39.18-.59.23-.19.05-.39.07-.59.07-.38,0-.73-.07-1.05-.21-.32-.14-.59-.32-.81-.56-.22-.23-.39-.51-.51-.81-.12-.3-.18-.62-.18-.94v-1.04c0-.34.07-.65.2-.95.13-.3.32-.56.54-.78.23-.22.51-.4.82-.53.32-.12.67-.19,1.03-.19.21,0,.41.05.62.15.21.1.38.22.53.36v-.45h1.38v5.83ZM279.22,47.3c0-.32-.1-.58-.32-.79-.21-.22-.51-.32-.88-.32-.32,0-.59.11-.81.34-.22.23-.34.49-.36.8v1.06c0,.35.11.65.33.89s.51.36.86.36c.37,0,.67-.12.88-.36.22-.24.32-.55.32-.93v-1.04Z"/>
          <path class="cls-2" d="M289.67,48.46h-3.71c.02.32.15.58.37.8.23.22.51.33.83.33.26,0,.48-.07.68-.21.21-.14.34-.32.43-.55l1.1.72c-.21.41-.5.74-.89.98-.38.24-.83.37-1.33.37-.34,0-.67-.07-.98-.2-.31-.13-.57-.31-.8-.54-.23-.23-.4-.49-.54-.8s-.2-.64-.2-.98v-.97c0-.34.07-.67.2-.97.13-.31.32-.57.54-.79.23-.23.5-.4.8-.54.31-.12.63-.19.97-.19s.67.07.97.19c.31.13.57.31.8.54.23.22.41.48.54.79.13.3.2.62.2.97v1.04ZM288.32,47.11c-.07-.26-.21-.46-.43-.62-.21-.16-.45-.24-.73-.24s-.53.08-.74.24c-.21.16-.35.37-.43.62v.18h2.35v-.18Z"/>
          <path class="cls-2" d="M302.52,53.91h-1.48l1.41-3.64-2.29-5.3h1.53l1.5,3.66,1.33-3.66h1.5l-3.5,8.94Z"/>
          <path class="cls-2" d="M314.6,48.38c0,.34-.07.67-.2.98-.13.31-.31.57-.54.8-.23.23-.49.4-.8.54-.3.13-.62.2-.97.2s-.67-.07-.98-.2c-.31-.13-.57-.31-.8-.54-.23-.23-.4-.49-.54-.8-.13-.31-.2-.64-.2-.98v-.98c0-.34.07-.67.2-.97.13-.31.32-.57.54-.79.23-.23.5-.4.8-.54.31-.12.63-.19.97-.19s.67.07.97.19c.31.13.57.31.8.54.23.22.41.48.54.79.13.3.2.62.2.97v.98ZM313.29,47.4c0-.34-.12-.62-.36-.84-.23-.23-.52-.34-.84-.34s-.62.11-.85.34c-.23.22-.35.5-.35.84v.98c-.01.33.1.62.34.85.23.23.53.35.87.35s.62-.12.85-.35c.23-.23.35-.52.35-.85v-.98Z"/>
          <path class="cls-2" d="M323.26,48.56c0,.33-.04.64-.11.92-.07.29-.2.53-.37.74s-.41.37-.71.49c-.29.12-.67.18-1.11.18s-.81-.06-1.1-.18c-.29-.12-.53-.28-.7-.49-.18-.21-.3-.45-.37-.74s-.11-.59-.11-.94v-3.57h1.39v3.57c0,.42.06.7.18.85s.36.22.72.22.61-.07.73-.23c.12-.15.18-.43.18-.84v-3.57h1.39v3.59Z"/>
          <path class="cls-2" d="M330.19,46.43c-.1-.08-.21-.13-.29-.15-.09-.02-.14-.03-.16-.03-.18,0-.32.05-.42.17-.1.11-.18.25-.23.41-.05.16-.09.33-.1.52,0,.18-.01.35-.01.5v2.92h-1.39v-5.8h1.39v.51c.12-.17.27-.31.45-.41.18-.1.34-.15.48-.15.21,0,.39.03.54.08.16.06.31.12.45.18l-.7,1.25Z"/>
          <path class="cls-2" d="M341.63,50.77v-8.78h1.39v8.78h-1.39Z"/>
          <path class="cls-2" d="M349.05,43.14c0,.25-.08.45-.26.61-.17.16-.38.24-.64.24-.24,0-.45-.08-.62-.24-.17-.16-.26-.36-.26-.61,0-.22.08-.42.25-.59.17-.17.37-.26.63-.26s.47.09.64.26c.18.18.26.37.26.59ZM347.45,50.77v-5.8h1.41v5.8h-1.41Z"/>
          <path class="cls-2" d="M355.84,43.27c-.15-.03-.27-.05-.34-.07s-.13-.02-.18-.02c-.18,0-.29.05-.33.15-.03.1-.05.23-.07.36v1.28h1.23v1.24h-1.23v4.56h-1.39v-4.56h-.69s0-1.24,0-1.24h.69v-.95c0-.18.01-.39.04-.65.02-.25.1-.48.23-.67.17-.26.38-.45.65-.58.27-.12.55-.18.83-.18.1,0,.22.01.35.03.14.02.33.09.57.19l-.35,1.11Z"/>
          <path class="cls-2" d="M364.75,48.46h-3.71c.02.32.15.58.37.8.23.22.51.33.83.33.26,0,.48-.07.68-.21.21-.14.34-.32.43-.55l1.1.72c-.21.41-.5.74-.89.98-.38.24-.83.37-1.33.37-.34,0-.67-.07-.98-.2-.31-.13-.57-.31-.8-.54-.23-.23-.4-.49-.54-.8-.13-.31-.2-.64-.2-.98v-.97c0-.34.07-.67.2-.97.13-.31.32-.57.54-.79.23-.23.5-.4.8-.54.31-.12.63-.19.97-.19s.67.07.97.19c.31.13.57.31.8.54.23.22.41.48.54.79.13.3.2.62.2.97v1.04ZM363.4,47.11c-.07-.26-.21-.46-.43-.62-.21-.16-.45-.24-.73-.24s-.53.08-.74.24c-.21.16-.35.37-.43.62v.18h2.35v-.18Z"/>
        </g>
      </g>
      <g>
        <path class="cls-2" d="M10.92,27.94c0,.77-.13,1.49-.39,2.14-.26.65-.62,1.23-1.1,1.72-.47.49-1.04.88-1.72,1.16-.68.28-1.44.42-2.27.42-.58,0-1.15-.08-1.71-.26-.56-.17-1.1-.45-1.61-.84v7.73H0v-19.52h2.13v.93c1.07-.75,2.17-1.13,3.29-1.13.86,0,1.63.15,2.32.45.69.3,1.27.72,1.74,1.24.47.53.83,1.14,1.08,1.84.25.7.37,1.43.37,2.21v1.9ZM8.79,26.04c0-.52-.07-1-.23-1.45-.15-.45-.37-.84-.66-1.17-.29-.33-.65-.6-1.06-.81-.42-.2-.89-.31-1.4-.31-1.1,0-1.93.36-2.51,1.08-.58.72-.87,1.59-.87,2.62v1.87c0,1.03.3,1.88.89,2.53.59.65,1.44.98,2.53.98.49,0,.94-.1,1.35-.29.41-.19.75-.45,1.05-.77.29-.32.51-.69.68-1.11.16-.42.24-.86.24-1.34v-1.83Z"/>
        <path class="cls-2" d="M23.45,27.62c0,.82-.14,1.57-.4,2.26-.27.69-.65,1.29-1.14,1.8-.5.51-1.08.92-1.76,1.21-.68.29-1.42.44-2.24.44s-1.53-.15-2.2-.45c-.68-.3-1.26-.71-1.74-1.22-.48-.51-.86-1.12-1.14-1.8-.28-.69-.42-1.42-.42-2.19v-1.84c0-.77.14-1.5.42-2.17.28-.68.67-1.27,1.16-1.77.49-.51,1.07-.9,1.74-1.19.67-.29,1.4-.44,2.19-.44s1.53.14,2.21.42c.68.28,1.26.67,1.75,1.16.49.49.88,1.07,1.16,1.74.28.67.42,1.4.42,2.19v1.87ZM21.29,25.81c0-1.03-.31-1.88-.93-2.54-.62-.67-1.46-1-2.51-1-.97,0-1.75.34-2.35,1.03-.6.69-.9,1.51-.9,2.48v1.87c0,.49.07.96.23,1.4.15.44.37.82.66,1.16.29.34.63.6,1.03.79.4.2.84.29,1.34.29,1.05,0,1.89-.35,2.51-1.05.62-.7.93-1.56.93-2.59v-1.84Z"/>
        <path class="cls-2" d="M37.3,33.09h-1.32l-2.9-8.15-2.77,8.15h-1.35l-4.67-12.56h2.29l3.09,8.5,2.87-8.5h1.23l2.93,8.5,3-8.5h2.22l-4.6,12.56Z"/>
        <path class="cls-2" d="M45.02,27.45v.77c0,.97.32,1.73.95,2.29.63.56,1.43.83,2.4.83.64,0,1.22-.19,1.72-.56.5-.38,1-.99,1.5-1.85l1.8,1c-.69,1.22-1.45,2.1-2.29,2.62-.84.53-1.8.79-2.9.79-.84,0-1.59-.16-2.26-.47-.66-.31-1.23-.73-1.69-1.26-.46-.52-.81-1.13-1.05-1.82-.24-.69-.35-1.41-.35-2.16v-1.87c0-.73.13-1.43.38-2.09.26-.67.62-1.25,1.08-1.76.46-.5,1.02-.9,1.67-1.2.65-.3,1.39-.45,2.21-.45.86,0,1.62.16,2.29.47.66.31,1.22.74,1.68,1.29.45.55.79,1.2,1.01,1.95.23.75.34,1.56.34,2.42v1.06h-8.5ZM51.27,24.88c0-.32-.09-.64-.26-.95s-.4-.59-.68-.84c-.28-.24-.6-.45-.96-.59-.37-.15-.74-.23-1.13-.23s-.8.07-1.17.23c-.38.15-.71.34-1,.58-.29.24-.52.51-.69.82-.17.31-.26.64-.26.98l-.03.58h6.21l-.03-.58Z"/>
        <path class="cls-2" d="M60.81,22.75c-.28-.15-.48-.24-.6-.26-.12-.02-.2-.03-.24-.03-.49,0-.89.13-1.17.39-.29.26-.51.59-.68,1-.16.41-.27.85-.32,1.32-.06.48-.08.91-.08,1.32v6.6h-2.16v-12.59h2.16v1.1c.24-.32.57-.62.99-.9.41-.28.84-.42,1.27-.42.24,0,.49.02.77.07s.68.16,1.19.35l-1.13,2.06Z"/>
        <path class="cls-2" d="M64.99,27.45v.77c0,.97.32,1.73.95,2.29.63.56,1.43.83,2.4.83.64,0,1.22-.19,1.72-.56.5-.38,1-.99,1.5-1.85l1.8,1c-.69,1.22-1.45,2.1-2.29,2.62-.84.53-1.8.79-2.9.79-.84,0-1.59-.16-2.26-.47-.66-.31-1.23-.73-1.69-1.26-.46-.52-.81-1.13-1.05-1.82-.24-.69-.35-1.41-.35-2.16v-1.87c0-.73.13-1.43.38-2.09.26-.67.62-1.25,1.08-1.76.46-.5,1.02-.9,1.67-1.2.65-.3,1.39-.45,2.21-.45.86,0,1.62.16,2.29.47.66.31,1.22.74,1.68,1.29.45.55.79,1.2,1.01,1.95.23.75.34,1.56.34,2.42v1.06h-8.5ZM71.24,24.88c0-.32-.09-.64-.26-.95-.17-.31-.4-.59-.68-.84-.28-.24-.6-.45-.96-.59-.37-.15-.74-.23-1.13-.23s-.8.07-1.17.23c-.38.15-.71.34-1,.58-.29.24-.52.51-.69.82-.17.31-.26.64-.26.98l-.03.58h6.21l-.03-.58Z"/>
        <path class="cls-2" d="M83.8,33.12v-.93c-.51.39-1.05.67-1.6.84-.55.17-1.11.26-1.69.26-.88,0-1.66-.15-2.33-.45s-1.25-.72-1.72-1.24c-.47-.53-.83-1.14-1.08-1.84-.25-.7-.37-1.43-.37-2.21v-1.8c0-.77.13-1.49.38-2.16.26-.67.62-1.25,1.1-1.74.47-.49,1.05-.88,1.72-1.16.68-.28,1.44-.42,2.27-.42,1.2,0,2.3.38,3.32,1.13v-7.51h2.13v19.23h-2.13ZM83.87,25.65c0-.96-.31-1.78-.92-2.43-.61-.65-1.44-.98-2.5-.98-.49,0-.94.1-1.34.29-.4.19-.75.45-1.05.77-.3.32-.53.7-.69,1.13-.16.43-.24.87-.24,1.32v1.8c0,.52.08,1,.24,1.45.16.45.39.84.68,1.17.29.33.65.6,1.06.81.42.2.89.31,1.4.31,1.1,0,1.93-.37,2.5-1.1.57-.73.86-1.65.86-2.74v-1.8Z"/>
        <path class="cls-2" d="M107.29,27.55c0,.78-.13,1.51-.38,2.21-.24.7-.6,1.31-1.07,1.84-.48.52-1.06.94-1.74,1.24-.7.3-1.47.45-2.32.45-1.17,0-2.26-.38-3.29-1.16v.96h-2.13V13.93h2.13v7.34c.51-.36,1.06-.63,1.61-.8.56-.17,1.13-.26,1.7-.26.84,0,1.6.14,2.28.42.68.28,1.25.66,1.72,1.14.47.48.84,1.06,1.09,1.72.26.67.39,1.37.39,2.13v1.93ZM105.16,25.72c0-.47-.08-.92-.24-1.34-.16-.42-.39-.79-.68-1.11-.3-.32-.65-.58-1.05-.77-.41-.2-.86-.29-1.35-.29-1.09,0-1.94.33-2.53.98-.58.66-.88,1.5-.88,2.53v1.87c0,.51.07.99.23,1.43.15.44.37.83.65,1.18.29.34.65.61,1.06.8.42.2.9.29,1.43.29s.99-.1,1.41-.31c.42-.21.77-.48,1.06-.81.29-.33.51-.72.66-1.17.15-.45.23-.93.23-1.45v-1.83Z"/>
        <path class="cls-2" d="M113.11,39.28h-2.25l2.57-6.05-5.22-12.69h2.32l3.96,9.7,3.64-9.7h2.25l-7.28,18.75Z"/>
      </g>
    </g>
  </g>
</svg>